<?xml version="1.0" encoding="UTF-8" standalone="no"?>
<svg
   viewBox="0 0 24 24"
   version="1.1"
   id="svg10283"
   sodipodi:docname="clock-outline.svg"
   inkscape:version="1.2.2 (b0a8486, 2022-12-01)"
   xmlns:inkscape="http://www.inkscape.org/namespaces/inkscape"
   xmlns:sodipodi="http://sodipodi.sourceforge.net/DTD/sodipodi-0.dtd"
   xmlns:xlink="http://www.w3.org/1999/xlink"
   xmlns="http://www.w3.org/2000/svg"
   xmlns:svg="http://www.w3.org/2000/svg">
  <defs
     id="defs10287">
    <filter
       inkscape:label="Fill Background"
       inkscape:menu="Fill and Transparency"
       inkscape:menu-tooltip="Adds a colorizable opaque background"
       style="color-interpolation-filters:sRGB;"
       id="filter14304"
       x="0"
       y="0"
       width="1"
       height="1">
      <feFlood
         result="result1"
         flood-color="rgb(25,146,212)"
         flood-opacity="1"
         id="feFlood14292" />
      <feImage
         xlink:href=""
         result="result2"
         id="feImage14294" />
      <feBlend
         result="result4"
         in2="result1"
         mode="multiply"
         id="feBlend14296" />
      <feMerge
         result="result3"
         id="feMerge14302">
        <feMergeNode
           in="result1"
           id="feMergeNode14298" />
        <feMergeNode
           in="SourceGraphic"
           id="feMergeNode14300" />
      </feMerge>
    </filter>
  </defs>
  <sodipodi:namedview
     id="namedview10285"
     pagecolor="#ffffff"
     bordercolor="#000000"
     borderopacity="0.25"
     inkscape:showpageshadow="2"
     inkscape:pageopacity="0.0"
     inkscape:pagecheckerboard="0"
     inkscape:deskcolor="#d1d1d1"
     showgrid="false"
     inkscape:zoom="42.791667"
     inkscape:cx="11.322298"
     inkscape:cy="12"
     inkscape:window-width="2560"
     inkscape:window-height="1278"
     inkscape:window-x="0"
     inkscape:window-y="25"
     inkscape:window-maximized="1"
     inkscape:current-layer="svg10283" />
  <path
     d="M12,20A8,8 0 0,0 20,12A8,8 0 0,0 12,4A8,8 0 0,0 4,12A8,8 0 0,0 12,20M12,2A10,10 0 0,1 22,12A10,10 0 0,1 12,22C6.47,22 2,17.5 2,12A10,10 0 0,1 12,2M12.5,7V12.25L17,14.92L16.25,16.15L11,13V7H12.5Z"
     id="path10281"
     style="filter:url(#filter14304);fill:#ffffff;fill-opacity:1" />
</svg>
