<?xml version="1.0" encoding="UTF-8" standalone="no"?>
<svg
   viewBox="0 0 24 24"
   version="1.1"
   id="svg16200"
   sodipodi:docname="help-circle.svg"
   inkscape:version="1.2.2 (b0a8486, 2022-12-01)"
   xmlns:inkscape="http://www.inkscape.org/namespaces/inkscape"
   xmlns:sodipodi="http://sodipodi.sourceforge.net/DTD/sodipodi-0.dtd"
   xmlns:xlink="http://www.w3.org/1999/xlink"
   xmlns="http://www.w3.org/2000/svg"
   xmlns:svg="http://www.w3.org/2000/svg">
  <defs
     id="defs16204">
    <filter
       inkscape:label="Fill Background"
       inkscape:menu="Fill and Transparency"
       inkscape:menu-tooltip="Adds a colorizable opaque background"
       style="color-interpolation-filters:sRGB;"
       id="filter16218"
       x="0"
       y="0"
       width="1"
       height="1">
      <feFlood
         result="result1"
         flood-color="rgb(25,146,212)"
         flood-opacity="1"
         id="feFlood16206" />
      <feImage
         xlink:href=""
         result="result2"
         id="feImage16208" />
      <feBlend
         result="result4"
         in2="result1"
         mode="multiply"
         id="feBlend16210" />
      <feMerge
         result="result3"
         id="feMerge16216">
        <feMergeNode
           in="result1"
           id="feMergeNode16212" />
        <feMergeNode
           in="SourceGraphic"
           id="feMergeNode16214" />
      </feMerge>
    </filter>
  </defs>
  <sodipodi:namedview
     id="namedview16202"
     pagecolor="#ffffff"
     bordercolor="#000000"
     borderopacity="0.25"
     inkscape:showpageshadow="2"
     inkscape:pageopacity="0.0"
     inkscape:pagecheckerboard="0"
     inkscape:deskcolor="#d1d1d1"
     showgrid="false"
     inkscape:zoom="42.791667"
     inkscape:cx="11.322298"
     inkscape:cy="12"
     inkscape:window-width="2560"
     inkscape:window-height="1278"
     inkscape:window-x="0"
     inkscape:window-y="25"
     inkscape:window-maximized="1"
     inkscape:current-layer="svg16200" />
  <path
     d="M15.07,11.25L14.17,12.17C13.45,12.89 13,13.5 13,15H11V14.5C11,13.39 11.45,12.39 12.17,11.67L13.41,10.41C13.78,10.05 14,9.55 14,9C14,7.89 13.1,7 12,7A2,2 0 0,0 10,9H8A4,4 0 0,1 12,5A4,4 0 0,1 16,9C16,9.88 15.64,10.67 15.07,11.25M13,19H11V17H13M12,2A10,10 0 0,0 2,12A10,10 0 0,0 12,22A10,10 0 0,0 22,12C22,6.47 17.5,2 12,2Z"
     id="path16198"
     style="filter:url(#filter16218);fill:#ffffff;fill-opacity:1" />
</svg>
